<?xml version="1.0" encoding="utf-8"?>
<svg id="master-artboard" viewBox="0 0 468.250244140625 466.0451354980469" version="1.1" xmlns="http://www.w3.org/2000/svg" x="0px" y="0px" style="enable-background:new 0 0 1096 780;" width="468.250244140625px" height="466.0451354980469px"><rect id="ee-background" x="0" y="0" width="468.250244140625" height="466.0451354980469" style="fill: white; fill-opacity: 0; pointer-events: none;"/>

<g transform="matrix(4.604739189147949, 0, 0, 4.604739189147949, -2769.7042541503906, -208.95347595214844)"><g id="g-3" transform="matrix(1, 0, 0, 1, 0, 0)">
	<g id="g-4">
		<path class="st0" d="M 652 46 C 668.546142578125 46 683.2234497070312 54.0505485534668 692.3259887695312 66.44573974609375 C 692.6138305664062 66.83769989013672 688.7957153320312 67.23400115966797 689.072265625 67.63452911376953 C 689.2933959960938 67.95479583740234 693.611328125 68.27777099609375 693.8251342773438 68.60338592529297 C 698.9931030273438 76.47358703613281 702 85.88777160644531 702 96 C 702 123.6 679.6 146 652 146 C 624.4 146 602 123.6 602 96 C 602 94.9012451171875 606.9559936523438 93.0931625366211 607.02587890625 92.01197814941406 C 607.076416015625 91.2308578491211 602.224365234375 91.17217254638672 602.3104248046875 90.40119934082031 C 605.096435546875 65.43333435058594 626.2926025390625 46 652 46 Z" style="fill: rgb(118, 176, 26);"/>
	</g>
</g></g><g transform="matrix(2.2434043884277344, 1.657283067703247, -1.657283067703247, 2.2434043884277344, 255.39480590820312, -86.47072982788086)"><g id="Layer_2_4_" transform="matrix(1, 0, 0, 1, 0, 0)">
	<g id="Layer_1-2_4_">
		<path class="st0" d="M 58 49 L 128.7362518310547 49.290409088134766 C 128.7362518310547 49.290409088134766 132.04356043152748 54.52158531964971 135.63687133789062 61.47620391845703 C 140.00096130371094 69.92261505126953 144.13311767578125 84.6678466796875 143.91709899902344 92.88896179199219 C 143.77166748046875 98.42353057861328 144.50489807128906 99.5337905883789 142.32025146484375 113.67086029052734 C 141.35693359375 119.90457153320312 137.58956909179688 128.98281860351562 134.4588165283203 135.03692626953125 C 130.33133709957949 143.0184592537647 125.44051361083984 148.7061767578125 125.44051361083984 148.7061767578125 L 63.92495346069336 148.1510772705078 L 58 49 Z" style="fill: rgb(96, 143, 21);"/>
	</g>
</g></g><path class="st1" d="M359.1,151.5c0.8-0.2,1.6-0.5,2.3-0.7C360,151.1,359.1,151.5,359.1,151.5z" style="fill: none;" transform="matrix(1, 0, 0, 1, 5.24151611328125, 1.66754150390625)"/><path class="st6" d="M299.5,335.2c1.8-24.7,5.2-77.4,3.1-91.3l-5.4-10.9l6.1-3.7V173l-6.1-6.1l6.1-4.1c0,0,1.1-17.2,0.9-30.1&#10;&#9;&#9;&#9;c-0.4,0.7-0.8,1.2-1.2,1.5c-2.9,2.3-130.9,2.4-149.8,0.4c1.3,21.1,5,82.6,5,97.7l10.9,4.1l-11.6,8.2l-4.8,56.5l8.2,9.5l-8.2,5.4&#10;&#9;&#9;&#9;c0,0,1.5,9,1.5,18.8C178.8,333.2,284.4,333.4,299.5,335.2z" style="fill: rgb(230, 230, 230);" transform="matrix(1, 0, 0, 1, 5.24151611328125, 1.66754150390625)"/><path class="st7" d="M146.7,116.2h-5.4c-0.5-7.7-2.1-13.3-3.9-13.3c-1.8,0-3.3,5.1-3.8,12.2c-4.1,0.2-11.8,0.8-17.6,1.4&#10;&#9;&#9;&#9;c-1.3-1.8-3.4-3-5.8-3c-3.9,0-7,3-7,6.8c0,3.7,3.2,6.8,7,6.8c2.2,0,4.1-1,5.4-2.5c3.8,0.8,9.4,1.3,17.9,1c0.4,8,2,14,4,14&#10;&#9;&#9;&#9;c1.8,0,3.3-5.3,3.9-12.6h5.9C146.4,123.7,146.2,119.7,146.7,116.2z" style="fill: rgb(94, 48, 0);" transform="matrix(1, 0, 0, 1, 5.24151611328125, 1.66754150390625)"/><path class="st7" d="M306.2,127.1h4.9c0.5,7.3,2.1,12.6,3.9,12.6c1.9,0,3.5-6,4-14c8.5,0.3,14.1-0.2,17.9-1&#10;&#9;&#9;&#9;c1.3,1.5,3.2,2.5,5.4,2.5c3.9,0,7-3,7-6.8c0-3.7-3.2-6.8-7-6.8c-2.4,0-4.5,1.2-5.8,3c-5.8-0.7-13.6-1.2-17.6-1.4&#10;&#9;&#9;&#9;c-0.6-7.1-2.1-12.2-3.8-12.2c-1.9,0-3.4,5.6-3.9,13.3h-3.6C307.5,119.8,307,123.8,306.2,127.1z" style="fill: rgb(94, 48, 0);" transform="matrix(1, 0, 0, 1, 5.24151611328125, 1.66754150390625)"/><path class="st4" d="M303,134.2c0.4-0.3,0.8-0.8,1.2-1.5c0.7-1.3,1.4-3.3,2-5.6c0.8-3.3,1.3-7.3,1.2-10.9&#10;&#9;&#9;&#9;c-0.1-2.9-0.6-5.5-1.6-7.5c-3.7-7.2-150.2-3.4-154.6-1.4c-2.4,1.1-3.8,4.7-4.4,8.9c-0.5,3.5-0.3,7.5,0.4,10.9&#10;&#9;&#9;&#9;c0.7,3.5,2.1,6.4,4,7.2c0.3,0.1,1.1,0.3,2.1,0.4C172.1,136.6,300.1,136.5,303,134.2z" style="fill: rgb(204, 204, 204);" transform="matrix(1, 0, 0, 1, 5.24151611328125, 1.66754150390625)"/><path class="st7" d="M146.1,342.7h-4.9c-0.5-7.3-2.1-12.6-3.9-12.6c-1.9,0-3.5,6-4,14c-8.5-0.3-14.1,0.2-17.9,1&#10;&#9;&#9;&#9;c-1.3-1.5-3.2-2.5-5.4-2.5c-3.9,0-7,3-7,6.8c0,3.7,3.2,6.8,7,6.8c2.4,0,4.5-1.2,5.8-3c5.8,0.7,13.6,1.2,17.6,1.4&#10;&#9;&#9;&#9;c0.6,7.1,2.1,12.2,3.8,12.2c1.9,0,3.4-5.6,3.9-13.3h3.6C144.8,349.9,145.3,346,146.1,342.7z" style="fill: rgb(94, 48, 0);" transform="matrix(1, 0, 0, 1, 5.24151611328125, 1.66754150390625)"/><path class="st4" d="M154.3,334.9c-2.9,0.2-4.7,0.4-5,0.7c-1.1,0.9-2.3,3.7-3.2,7.2c-0.8,3.3-1.3,7.3-1.2,10.9&#10;&#9;&#9;&#9;c0.1,2.9,0.6,5.5,1.6,7.5c3.7,7.2,150.2,3.4,154.6,1.4c2.4-1.1,3.8-4.7,4.4-8.9c0.5-3.6,0.3-7.5-0.4-10.9c-0.7-3.5-2.1-6.4-4-7.2&#10;&#9;&#9;&#9;c-0.3-0.1-0.8-0.2-1.6-0.3C284.4,333.4,178.8,333.2,154.3,334.9z" style="fill: rgb(204, 204, 204);" transform="matrix(1, 0, 0, 1, 5.24151611328125, 1.66754150390625)"/>

<path class="st7" d="M305.5,353.6h5.4c0.5,7.7,2.1,13.3,3.9,13.3c1.8,0,3.3-5.1,3.8-12.2c4.1-0.2,11.8-0.8,17.6-1.4&#10;&#9;&#9;&#9;c1.3,1.8,3.4,3,5.8,3c3.9,0,7-3,7-6.8c0-3.7-3.2-6.8-7-6.8c-2.2,0-4.1,1-5.4,2.5c-3.8-0.8-9.4-1.3-17.9-1c-0.4-8-2-14-4-14&#10;&#9;&#9;&#9;c-1.8,0-3.3,5.3-3.9,12.6h-5.9C305.9,346,306,350,305.5,353.6z" style="fill: rgb(94, 48, 0);" transform="matrix(1, 0, 0, 1, 5.24151611328125, 1.66754150390625)"/><path d="M 75.80000305175781 122.5 L 75.80000305175781 117.30000305175781 L 193.39999389648438 117.30000305175781 L 193.39999389648438 122.5 L 75.80000305175781 122.5 Z" class="st5" style="fill: rgb(94, 48, 0);" transform="matrix(1, 0, 0, 1, 99.08796691894531, 47.15306091308594)"/><path d="M 75.80000305175781 132.60000610351562 L 75.80000305175781 127.4000015258789 L 193.39999389648438 127.4000015258789 L 193.39999389648438 132.60000610351562 L 75.80000305175781 132.60000610351562 Z" class="st5" style="fill: rgb(94, 48, 0);" transform="matrix(1, 0, 0, 1, 99.08796691894531, 52.15306091308594)"/><path d="M 75.80000305175781 142.6999969482422 L 75.80000305175781 137.5 L 193.39999389648438 137.5 L 193.39999389648438 142.6999969482422 L 75.80000305175781 142.6999969482422 Z" class="st5" style="fill: rgb(94, 48, 0);" transform="matrix(1, 0, 0, 1, 99.08796691894531, 57.15306091308594)"/><path d="M 75.80000305175781 122.5 L 75.80000305175781 117.30000305175781 L 193.39999389648438 117.30000305175781 L 193.39999389648438 122.5 L 75.80000305175781 122.5 Z" class="st5" style="fill: rgb(94, 48, 0);" transform="matrix(1, 0, 0, 1, 100.11767578125, 92.64395141601562)"/><path d="M 75.80000305175781 132.60000610351562 L 75.80000305175781 127.4000015258789 L 193.39999389648438 127.4000015258789 L 193.39999389648438 132.60000610351562 L 75.80000305175781 132.60000610351562 Z" class="st5" style="fill: rgb(94, 48, 0);" transform="matrix(1, 0, 0, 1, 100.11767578125, 97.64395141601562)"/><path d="M 151.5608367919922 132.60000610351562 L 151.5608367919922 127.4000015258789 L 193.39999389648438 127.4000015258789 L 193.39999389648438 132.60000610351562 L 151.5608367919922 132.60000610351562 Z" class="st5" style="fill: rgb(94, 48, 0);" transform="matrix(1, 0, 0, 1, 99.19572448730469, 125.28358459472656)"/><path d="M 151.5608367919922 132.60000610351562 L 151.5608367919922 127.4000015258789 L 193.39999389648438 127.4000015258789 L 193.39999389648438 132.60000610351562 L 151.5608367919922 132.60000610351562 Z" class="st5" style="fill: rgb(94, 48, 0);" transform="matrix(1, 0, 0, 1, 99.43121337890625, 137.85003662109375)"/></svg>